<?xml version="1.0" encoding="UTF-8" standalone="no"?>
<!DOCTYPE svg PUBLIC "-//W3C//DTD SVG 1.1//EN"
 "http://www.w3.org/Graphics/SVG/1.1/DTD/svg11.dtd">
<!-- Generated by graphviz version 2.38.0 (20140413.2041)
 -->
<!-- Title: G Pages: 1 -->
<svg width="776pt" height="600pt"
 viewBox="0.00 0.00 775.86 600.00" xmlns="http://www.w3.org/2000/svg" xmlns:xlink="http://www.w3.org/1999/xlink">
<g id="graph0" class="graph" transform="scale(1 1) rotate(0) translate(4 596)">
<title>G</title>
<polygon fill="white" stroke="none" points="-4,4 -4,-596 771.856,-596 771.856,4 -4,4"/>
<g id="clust1" class="cluster"><title>cluster_Global</title>
<path fill="none" stroke="gray" d="M549.856,-8C549.856,-8 747.856,-8 747.856,-8 753.856,-8 759.856,-14 759.856,-20 759.856,-20 759.856,-572 759.856,-572 759.856,-578 753.856,-584 747.856,-584 747.856,-584 549.856,-584 549.856,-584 543.856,-584 537.856,-578 537.856,-572 537.856,-572 537.856,-20 537.856,-20 537.856,-14 543.856,-8 549.856,-8"/>
<text text-anchor="middle" x="648.856" y="-571.2" font-family="Times New Roman,serif" font-size="11.00" fill="gray">Global</text>
</g>
<g id="clust2" class="cluster"><title>cluster_\Slothsoft</title>
<path fill="none" stroke="gray" d="M557.856,-16C557.856,-16 739.856,-16 739.856,-16 745.856,-16 751.856,-22 751.856,-28 751.856,-28 751.856,-544 751.856,-544 751.856,-550 745.856,-556 739.856,-556 739.856,-556 557.856,-556 557.856,-556 551.856,-556 545.856,-550 545.856,-544 545.856,-544 545.856,-28 545.856,-28 545.856,-22 551.856,-16 557.856,-16"/>
<text text-anchor="middle" x="648.856" y="-543.2" font-family="Times New Roman,serif" font-size="11.00" fill="gray">Slothsoft</text>
</g>
<g id="clust3" class="cluster"><title>cluster_\Slothsoft\Chat</title>
<path fill="none" stroke="gray" d="M565.856,-24C565.856,-24 731.856,-24 731.856,-24 737.856,-24 743.856,-30 743.856,-36 743.856,-36 743.856,-516 743.856,-516 743.856,-522 737.856,-528 731.856,-528 731.856,-528 565.856,-528 565.856,-528 559.856,-528 553.856,-522 553.856,-516 553.856,-516 553.856,-36 553.856,-36 553.856,-30 559.856,-24 565.856,-24"/>
<text text-anchor="middle" x="648.856" y="-515.2" font-family="Times New Roman,serif" font-size="11.00" fill="gray">Chat</text>
</g>
<g id="clust5" class="cluster"><title>cluster_\Slothsoft\Chat\Assets</title>
<path fill="none" stroke="gray" d="M593.856,-186C593.856,-186 703.856,-186 703.856,-186 709.856,-186 715.856,-192 715.856,-198 715.856,-198 715.856,-300 715.856,-300 715.856,-306 709.856,-312 703.856,-312 703.856,-312 593.856,-312 593.856,-312 587.856,-312 581.856,-306 581.856,-300 581.856,-300 581.856,-198 581.856,-198 581.856,-192 587.856,-186 593.856,-186"/>
<text text-anchor="middle" x="648.856" y="-299.2" font-family="Times New Roman,serif" font-size="11.00" fill="gray">Assets</text>
</g>
<g id="clust4" class="cluster"><title>cluster_\Slothsoft\Chat\Executables</title>
<path fill="none" stroke="gray" d="M573.856,-320C573.856,-320 723.856,-320 723.856,-320 729.856,-320 735.856,-326 735.856,-332 735.856,-332 735.856,-488 735.856,-488 735.856,-494 729.856,-500 723.856,-500 723.856,-500 573.856,-500 573.856,-500 567.856,-500 561.856,-494 561.856,-488 561.856,-488 561.856,-332 561.856,-332 561.856,-326 567.856,-320 573.856,-320"/>
<text text-anchor="middle" x="648.856" y="-487.2" font-family="Times New Roman,serif" font-size="11.00" fill="gray">Executables</text>
</g>
<!-- \\Slothsoft\\Chat\\Executables\\SSE -->
<g id="node1" class="node"><title>\\Slothsoft\\Chat\\Executables\\SSE</title>
<polygon fill="none" stroke="black" points="675.856,-472 621.856,-472 621.856,-436 675.856,-436 675.856,-472"/>
<text text-anchor="middle" x="648.856" y="-451.2" font-family="Courier,monospace" font-size="11.00">SSE</text>
</g>
<!-- \\Slothsoft\\Farah\\Module\\Executables\\ExecutableBase -->
<g id="node9" class="node"><title>\\Slothsoft\\Farah\\Module\\Executables\\ExecutableBase</title>
<ellipse fill="none" stroke="black" cx="248.928" cy="-454" rx="204.964" ry="18"/>
<text text-anchor="middle" x="248.928" y="-450.3" font-family="Times New Roman,serif" font-size="14.00" fill="gray">\Slothsoft\Farah\Module\Executables\ExecutableBase</text>
</g>
<!-- \\Slothsoft\\Chat\\Executables\\SSE&#45;&gt;\\Slothsoft\\Farah\\Module\\Executables\\ExecutableBase -->
<g id="edge1" class="edge"><title>\\Slothsoft\\Chat\\Executables\\SSE&#45;&gt;\\Slothsoft\\Farah\\Module\\Executables\\ExecutableBase</title>
<path fill="none" stroke="black" d="M621.747,-454C588.347,-454 527.225,-454 464.053,-454"/>
<polygon fill="none" stroke="black" points="463.901,-450.5 453.901,-454 463.901,-457.5 463.901,-450.5"/>
</g>
<!-- \\Slothsoft\\Chat\\Executables\\ChatExecutableCreator -->
<g id="node2" class="node"><title>\\Slothsoft\\Chat\\Executables\\ChatExecutableCreator</title>
<polygon fill="none" stroke="black" points="727.856,-418 569.856,-418 569.856,-382 727.856,-382 727.856,-418"/>
<text text-anchor="middle" x="648.856" y="-397.2" font-family="Courier,monospace" font-size="11.00">ChatExecutableCreator</text>
</g>
<!-- \\Slothsoft\\Farah\\Module\\Executables\\ExecutableCreator -->
<g id="node11" class="node"><title>\\Slothsoft\\Farah\\Module\\Executables\\ExecutableCreator</title>
<ellipse fill="none" stroke="black" cx="248.928" cy="-400" rx="214.462" ry="18"/>
<text text-anchor="middle" x="248.928" y="-396.3" font-family="Times New Roman,serif" font-size="14.00" fill="gray">\Slothsoft\Farah\Module\Executables\ExecutableCreator</text>
</g>
<!-- \\Slothsoft\\Chat\\Executables\\ChatExecutableCreator&#45;&gt;\\Slothsoft\\Farah\\Module\\Executables\\ExecutableCreator -->
<g id="edge3" class="edge"><title>\\Slothsoft\\Chat\\Executables\\ChatExecutableCreator&#45;&gt;\\Slothsoft\\Farah\\Module\\Executables\\ExecutableCreator</title>
<path fill="none" stroke="black" d="M569.713,-400C541.593,-400 508.291,-400 473.978,-400"/>
<polygon fill="none" stroke="black" points="473.791,-396.5 463.791,-400 473.791,-403.5 473.791,-396.5"/>
</g>
<!-- \\Slothsoft\\Chat\\Executables\\Fetch -->
<g id="node3" class="node"><title>\\Slothsoft\\Chat\\Executables\\Fetch</title>
<polygon fill="none" stroke="black" points="675.856,-364 621.856,-364 621.856,-328 675.856,-328 675.856,-364"/>
<text text-anchor="middle" x="648.856" y="-343.2" font-family="Courier,monospace" font-size="11.00">Fetch</text>
</g>
<!-- \\Slothsoft\\Farah\\Module\\Executables\\ExecutableDOMWriterBase -->
<g id="node13" class="node"><title>\\Slothsoft\\Farah\\Module\\Executables\\ExecutableDOMWriterBase</title>
<ellipse fill="none" stroke="black" cx="248.928" cy="-346" rx="248.856" ry="18"/>
<text text-anchor="middle" x="248.928" y="-342.3" font-family="Times New Roman,serif" font-size="14.00" fill="gray">\Slothsoft\Farah\Module\Executables\ExecutableDOMWriterBase</text>
</g>
<!-- \\Slothsoft\\Chat\\Executables\\Fetch&#45;&gt;\\Slothsoft\\Farah\\Module\\Executables\\ExecutableDOMWriterBase -->
<g id="edge5" class="edge"><title>\\Slothsoft\\Chat\\Executables\\Fetch&#45;&gt;\\Slothsoft\\Farah\\Module\\Executables\\ExecutableDOMWriterBase</title>
<path fill="none" stroke="black" d="M621.747,-346C596.295,-346 554.745,-346 508.457,-346"/>
<polygon fill="none" stroke="black" points="508.196,-342.5 498.196,-346 508.196,-349.5 508.196,-342.5"/>
</g>
<!-- \\Slothsoft\\Chat\\Assets\\ServerSentEvent -->
<g id="node4" class="node"><title>\\Slothsoft\\Chat\\Assets\\ServerSentEvent</title>
<polygon fill="none" stroke="black" points="707.856,-284 589.856,-284 589.856,-248 707.856,-248 707.856,-284"/>
<text text-anchor="middle" x="648.856" y="-263.2" font-family="Courier,monospace" font-size="11.00">ServerSentEvent</text>
</g>
<!-- \\Slothsoft\\Farah\\Module\\Node\\Asset\\AssetBase -->
<g id="node12" class="node"><title>\\Slothsoft\\Farah\\Module\\Node\\Asset\\AssetBase</title>
<ellipse fill="none" stroke="black" cx="248.928" cy="-239" rx="185.467" ry="18"/>
<text text-anchor="middle" x="248.928" y="-235.3" font-family="Times New Roman,serif" font-size="14.00" fill="gray">\Slothsoft\Farah\Module\Node\Asset\AssetBase</text>
</g>
<!-- \\Slothsoft\\Chat\\Assets\\ServerSentEvent&#45;&gt;\\Slothsoft\\Farah\\Module\\Node\\Asset\\AssetBase -->
<g id="edge4" class="edge"><title>\\Slothsoft\\Chat\\Assets\\ServerSentEvent&#45;&gt;\\Slothsoft\\Farah\\Module\\Node\\Asset\\AssetBase</title>
<path fill="none" stroke="black" d="M589.568,-262.045C542.642,-258.861 474.343,-254.227 411.277,-249.948"/>
<polygon fill="none" stroke="black" points="411.418,-246.449 401.204,-249.264 410.944,-253.433 411.418,-246.449"/>
</g>
<!-- \\Slothsoft\\Chat\\Assets\\Fetch -->
<g id="node5" class="node"><title>\\Slothsoft\\Chat\\Assets\\Fetch</title>
<polygon fill="none" stroke="black" points="675.856,-230 621.856,-230 621.856,-194 675.856,-194 675.856,-230"/>
<text text-anchor="middle" x="648.856" y="-209.2" font-family="Courier,monospace" font-size="11.00">Fetch</text>
</g>
<!-- \\Slothsoft\\Chat\\Assets\\Fetch&#45;&gt;\\Slothsoft\\Farah\\Module\\Node\\Asset\\AssetBase -->
<g id="edge6" class="edge"><title>\\Slothsoft\\Chat\\Assets\\Fetch&#45;&gt;\\Slothsoft\\Farah\\Module\\Node\\Asset\\AssetBase</title>
<path fill="none" stroke="black" d="M621.747,-213.772C579.049,-216.669 491.047,-222.64 411.374,-228.046"/>
<polygon fill="none" stroke="black" points="410.941,-224.567 401.201,-228.736 411.415,-231.551 410.941,-224.567"/>
</g>
<!-- \\Slothsoft\\Chat\\SSEServer -->
<g id="node6" class="node"><title>\\Slothsoft\\Chat\\SSEServer</title>
<polygon fill="none" stroke="black" points="687.356,-176 610.356,-176 610.356,-140 687.356,-140 687.356,-176"/>
<text text-anchor="middle" x="648.856" y="-155.2" font-family="Courier,monospace" font-size="11.00">SSEServer</text>
</g>
<!-- \\Slothsoft\\SSE\\Server -->
<g id="node10" class="node"><title>\\Slothsoft\\SSE\\Server</title>
<ellipse fill="none" stroke="black" cx="248.928" cy="-158" rx="90.9839" ry="18"/>
<text text-anchor="middle" x="248.928" y="-154.3" font-family="Times New Roman,serif" font-size="14.00" fill="gray">\Slothsoft\SSE\Server</text>
</g>
<!-- \\Slothsoft\\Chat\\SSEServer&#45;&gt;\\Slothsoft\\SSE\\Server -->
<g id="edge2" class="edge"><title>\\Slothsoft\\Chat\\SSEServer&#45;&gt;\\Slothsoft\\SSE\\Server</title>
<path fill="none" stroke="black" d="M610.061,-158C550.964,-158 434.71,-158 350.23,-158"/>
<polygon fill="none" stroke="black" points="350.091,-154.5 340.091,-158 350.091,-161.5 350.091,-154.5"/>
</g>
<!-- \\Slothsoft\\Chat\\Model -->
<g id="node7" class="node"><title>\\Slothsoft\\Chat\\Model</title>
<polygon fill="none" stroke="black" points="675.856,-122 621.856,-122 621.856,-86 675.856,-86 675.856,-122"/>
<text text-anchor="middle" x="648.856" y="-101.2" font-family="Courier,monospace" font-size="11.00">Model</text>
</g>
<!-- \\Slothsoft\\Chat\\MinecraftLog -->
<g id="node8" class="node"><title>\\Slothsoft\\Chat\\MinecraftLog</title>
<polygon fill="none" stroke="black" points="697.856,-68 599.856,-68 599.856,-32 697.856,-32 697.856,-68"/>
<text text-anchor="middle" x="648.856" y="-47.2" font-family="Courier,monospace" font-size="11.00">MinecraftLog</text>
</g>
</g>
</svg>
