<?xml version="1.0" encoding="UTF-8" standalone="no"?>
<!DOCTYPE svg PUBLIC "-//W3C//DTD SVG 1.1//EN"
 "http://www.w3.org/Graphics/SVG/1.1/DTD/svg11.dtd">
<!-- Generated by graphviz version 2.38.0 (20140413.2041)
 -->
<!-- Title: G Pages: 1 -->
<svg width="970pt" height="628pt"
 viewBox="0.00 0.00 970.04 628.00" xmlns="http://www.w3.org/2000/svg" xmlns:xlink="http://www.w3.org/1999/xlink">
<g id="graph0" class="graph" transform="scale(1 1) rotate(0) translate(4 624)">
<title>G</title>
<polygon fill="white" stroke="none" points="-4,4 -4,-624 966.038,-624 966.038,4 -4,4"/>
<g id="clust1" class="cluster"><title>cluster_Global</title>
<path fill="none" stroke="gray" d="M750.038,-8C750.038,-8 942.038,-8 942.038,-8 948.038,-8 954.038,-14 954.038,-20 954.038,-20 954.038,-600 954.038,-600 954.038,-606 948.038,-612 942.038,-612 942.038,-612 750.038,-612 750.038,-612 744.038,-612 738.038,-606 738.038,-600 738.038,-600 738.038,-20 738.038,-20 738.038,-14 744.038,-8 750.038,-8"/>
<text text-anchor="middle" x="846.038" y="-599.2" font-family="Times New Roman,serif" font-size="11.00" fill="gray">Global</text>
</g>
<g id="clust2" class="cluster"><title>cluster_\Slothsoft</title>
<path fill="none" stroke="gray" d="M758.038,-16C758.038,-16 934.038,-16 934.038,-16 940.038,-16 946.038,-22 946.038,-28 946.038,-28 946.038,-572 946.038,-572 946.038,-578 940.038,-584 934.038,-584 934.038,-584 758.038,-584 758.038,-584 752.038,-584 746.038,-578 746.038,-572 746.038,-572 746.038,-28 746.038,-28 746.038,-22 752.038,-16 758.038,-16"/>
<text text-anchor="middle" x="846.038" y="-571.2" font-family="Times New Roman,serif" font-size="11.00" fill="gray">Slothsoft</text>
</g>
<g id="clust3" class="cluster"><title>cluster_\Slothsoft\Chat</title>
<path fill="none" stroke="gray" d="M766.038,-24C766.038,-24 926.038,-24 926.038,-24 932.038,-24 938.038,-30 938.038,-36 938.038,-36 938.038,-544 938.038,-544 938.038,-550 932.038,-556 926.038,-556 926.038,-556 766.038,-556 766.038,-556 760.038,-556 754.038,-550 754.038,-544 754.038,-544 754.038,-36 754.038,-36 754.038,-30 760.038,-24 766.038,-24"/>
<text text-anchor="middle" x="846.038" y="-543.2" font-family="Times New Roman,serif" font-size="11.00" fill="gray">Chat</text>
</g>
<g id="clust4" class="cluster"><title>cluster_\Slothsoft\Chat\Assets</title>
<path fill="none" stroke="gray" d="M774.038,-186C774.038,-186 918.038,-186 918.038,-186 924.038,-186 930.038,-192 930.038,-198 930.038,-198 930.038,-516 930.038,-516 930.038,-522 924.038,-528 918.038,-528 918.038,-528 774.038,-528 774.038,-528 768.038,-528 762.038,-522 762.038,-516 762.038,-516 762.038,-198 762.038,-198 762.038,-192 768.038,-186 774.038,-186"/>
<text text-anchor="middle" x="846.038" y="-515.2" font-family="Times New Roman,serif" font-size="11.00" fill="gray">Assets</text>
</g>
<!-- \\Slothsoft\\Chat\\Assets\\FetchBuilder -->
<g id="node1" class="node"><title>\\Slothsoft\\Chat\\Assets\\FetchBuilder</title>
<polygon fill="none" stroke="black" points="895.038,-500 797.038,-500 797.038,-464 895.038,-464 895.038,-500"/>
<text text-anchor="middle" x="846.038" y="-479.2" font-family="Courier,monospace" font-size="11.00">FetchBuilder</text>
</g>
<!-- \\Slothsoft\\Farah\\Module\\Asset\\ExecutableBuilderStrategy\\ExecutableBuilderStrategyInterface -->
<g id="node10" class="node"><title>\\Slothsoft\\Farah\\Module\\Asset\\ExecutableBuilderStrategy\\ExecutableBuilderStrategyInterface</title>
<ellipse fill="none" stroke="black" cx="349.019" cy="-428" rx="349.038" ry="18"/>
<text text-anchor="middle" x="349.019" y="-424.3" font-family="Times New Roman,serif" font-size="14.00" fill="gray">\Slothsoft\Farah\Module\Asset\ExecutableBuilderStrategy\ExecutableBuilderStrategyInterface</text>
</g>
<!-- \\Slothsoft\\Chat\\Assets\\FetchBuilder&#45;&gt;\\Slothsoft\\Farah\\Module\\Asset\\ExecutableBuilderStrategy\\ExecutableBuilderStrategyInterface -->
<g id="edge1" class="edge"><title>\\Slothsoft\\Chat\\Assets\\FetchBuilder&#45;&gt;\\Slothsoft\\Farah\\Module\\Asset\\ExecutableBuilderStrategy\\ExecutableBuilderStrategyInterface</title>
<path fill="none" stroke="black" stroke-dasharray="1,5" d="M796.672,-476.724C730.639,-469.521 609.091,-456.261 509.446,-445.391"/>
<polygon fill="none" stroke="black" points="509.581,-441.885 499.26,-444.28 508.822,-448.844 509.581,-441.885"/>
</g>
<!-- \\Slothsoft\\Chat\\Assets\\FetchParameterFilter -->
<g id="node2" class="node"><title>\\Slothsoft\\Chat\\Assets\\FetchParameterFilter</title>
<polygon fill="none" stroke="black" points="922.038,-284 770.038,-284 770.038,-248 922.038,-248 922.038,-284"/>
<text text-anchor="middle" x="846.038" y="-263.2" font-family="Courier,monospace" font-size="11.00">FetchParameterFilter</text>
</g>
<!-- \\Slothsoft\\Farah\\Module\\Asset\\ParameterFilterStrategy\\AbstractMapParameterFilter -->
<g id="node11" class="node"><title>\\Slothsoft\\Farah\\Module\\Asset\\ParameterFilterStrategy\\AbstractMapParameterFilter</title>
<ellipse fill="none" stroke="black" cx="349.019" cy="-266" rx="313.844" ry="18"/>
<text text-anchor="middle" x="349.019" y="-262.3" font-family="Times New Roman,serif" font-size="14.00" fill="gray">\Slothsoft\Farah\Module\Asset\ParameterFilterStrategy\AbstractMapParameterFilter</text>
</g>
<!-- \\Slothsoft\\Chat\\Assets\\FetchParameterFilter&#45;&gt;\\Slothsoft\\Farah\\Module\\Asset\\ParameterFilterStrategy\\AbstractMapParameterFilter -->
<g id="edge2" class="edge"><title>\\Slothsoft\\Chat\\Assets\\FetchParameterFilter&#45;&gt;\\Slothsoft\\Farah\\Module\\Asset\\ParameterFilterStrategy\\AbstractMapParameterFilter</title>
<path fill="none" stroke="black" d="M769.855,-266C742.228,-266 708.914,-266 673.281,-266"/>
<polygon fill="none" stroke="black" points="673.173,-262.5 663.173,-266 673.173,-269.5 673.173,-262.5"/>
</g>
<!-- \\Slothsoft\\Chat\\Assets\\PullBuilder -->
<g id="node3" class="node"><title>\\Slothsoft\\Chat\\Assets\\PullBuilder</title>
<polygon fill="none" stroke="black" points="891.538,-446 800.538,-446 800.538,-410 891.538,-410 891.538,-446"/>
<text text-anchor="middle" x="846.038" y="-425.2" font-family="Courier,monospace" font-size="11.00">PullBuilder</text>
</g>
<!-- \\Slothsoft\\Chat\\Assets\\PullBuilder&#45;&gt;\\Slothsoft\\Farah\\Module\\Asset\\ExecutableBuilderStrategy\\ExecutableBuilderStrategyInterface -->
<g id="edge3" class="edge"><title>\\Slothsoft\\Chat\\Assets\\PullBuilder&#45;&gt;\\Slothsoft\\Farah\\Module\\Asset\\ExecutableBuilderStrategy\\ExecutableBuilderStrategyInterface</title>
<path fill="none" stroke="black" stroke-dasharray="1,5" d="M800.235,-428C776.251,-428 744.267,-428 708.361,-428"/>
<polygon fill="none" stroke="black" points="708.133,-424.5 698.133,-428 708.133,-431.5 708.133,-424.5"/>
</g>
<!-- \\Slothsoft\\Chat\\Assets\\PullParameterFilter -->
<g id="node4" class="node"><title>\\Slothsoft\\Chat\\Assets\\PullParameterFilter</title>
<polygon fill="none" stroke="black" points="918.538,-338 773.538,-338 773.538,-302 918.538,-302 918.538,-338"/>
<text text-anchor="middle" x="846.038" y="-317.2" font-family="Courier,monospace" font-size="11.00">PullParameterFilter</text>
</g>
<!-- \\Slothsoft\\Chat\\Assets\\PullParameterFilter&#45;&gt;\\Slothsoft\\Farah\\Module\\Asset\\ParameterFilterStrategy\\AbstractMapParameterFilter -->
<g id="edge4" class="edge"><title>\\Slothsoft\\Chat\\Assets\\PullParameterFilter&#45;&gt;\\Slothsoft\\Farah\\Module\\Asset\\ParameterFilterStrategy\\AbstractMapParameterFilter</title>
<path fill="none" stroke="black" d="M773.323,-312.177C703.655,-304.577 595.583,-292.788 506.077,-283.024"/>
<polygon fill="none" stroke="black" points="506.413,-279.54 496.093,-281.935 505.654,-286.499 506.413,-279.54"/>
</g>
<!-- \\Slothsoft\\Chat\\Assets\\PushBuilder -->
<g id="node5" class="node"><title>\\Slothsoft\\Chat\\Assets\\PushBuilder</title>
<polygon fill="none" stroke="black" points="891.538,-392 800.538,-392 800.538,-356 891.538,-356 891.538,-392"/>
<text text-anchor="middle" x="846.038" y="-371.2" font-family="Courier,monospace" font-size="11.00">PushBuilder</text>
</g>
<!-- \\Slothsoft\\Chat\\Assets\\PushBuilder&#45;&gt;\\Slothsoft\\Farah\\Module\\Asset\\ExecutableBuilderStrategy\\ExecutableBuilderStrategyInterface -->
<g id="edge5" class="edge"><title>\\Slothsoft\\Chat\\Assets\\PushBuilder&#45;&gt;\\Slothsoft\\Farah\\Module\\Asset\\ExecutableBuilderStrategy\\ExecutableBuilderStrategyInterface</title>
<path fill="none" stroke="black" stroke-dasharray="1,5" d="M800.235,-378.887C735.053,-385.998 610.78,-399.554 509.286,-410.626"/>
<polygon fill="none" stroke="black" points="508.787,-407.16 499.225,-411.724 509.546,-414.118 508.787,-407.16"/>
</g>
<!-- \\Slothsoft\\Chat\\Assets\\PushParameterFilter -->
<g id="node6" class="node"><title>\\Slothsoft\\Chat\\Assets\\PushParameterFilter</title>
<polygon fill="none" stroke="black" points="918.538,-230 773.538,-230 773.538,-194 918.538,-194 918.538,-230"/>
<text text-anchor="middle" x="846.038" y="-209.2" font-family="Courier,monospace" font-size="11.00">PushParameterFilter</text>
</g>
<!-- \\Slothsoft\\Chat\\Assets\\PushParameterFilter&#45;&gt;\\Slothsoft\\Farah\\Module\\Asset\\ParameterFilterStrategy\\AbstractMapParameterFilter -->
<g id="edge6" class="edge"><title>\\Slothsoft\\Chat\\Assets\\PushParameterFilter&#45;&gt;\\Slothsoft\\Farah\\Module\\Asset\\ParameterFilterStrategy\\AbstractMapParameterFilter</title>
<path fill="none" stroke="black" d="M773.323,-219.823C703.655,-227.423 595.583,-239.212 506.077,-248.976"/>
<polygon fill="none" stroke="black" points="505.654,-245.501 496.093,-250.065 506.413,-252.46 505.654,-245.501"/>
</g>
<!-- \\Slothsoft\\Chat\\MinecraftLog -->
<g id="node7" class="node"><title>\\Slothsoft\\Chat\\MinecraftLog</title>
<polygon fill="none" stroke="black" points="895.038,-176 797.038,-176 797.038,-140 895.038,-140 895.038,-176"/>
<text text-anchor="middle" x="846.038" y="-155.2" font-family="Courier,monospace" font-size="11.00">MinecraftLog</text>
</g>
<!-- \\Slothsoft\\Chat\\Model -->
<g id="node8" class="node"><title>\\Slothsoft\\Chat\\Model</title>
<polygon fill="none" stroke="black" points="873.038,-122 819.038,-122 819.038,-86 873.038,-86 873.038,-122"/>
<text text-anchor="middle" x="846.038" y="-101.2" font-family="Courier,monospace" font-size="11.00">Model</text>
</g>
<!-- \\Slothsoft\\Chat\\SSEServer -->
<g id="node9" class="node"><title>\\Slothsoft\\Chat\\SSEServer</title>
<polygon fill="none" stroke="black" points="884.538,-68 807.538,-68 807.538,-32 884.538,-32 884.538,-68"/>
<text text-anchor="middle" x="846.038" y="-47.2" font-family="Courier,monospace" font-size="11.00">SSEServer</text>
</g>
<!-- \\Slothsoft\\SSE\\Server -->
<g id="node12" class="node"><title>\\Slothsoft\\SSE\\Server</title>
<ellipse fill="none" stroke="black" cx="349.019" cy="-50" rx="90.9839" ry="18"/>
<text text-anchor="middle" x="349.019" y="-46.3" font-family="Times New Roman,serif" font-size="14.00" fill="gray">\Slothsoft\SSE\Server</text>
</g>
<!-- \\Slothsoft\\Chat\\SSEServer&#45;&gt;\\Slothsoft\\SSE\\Server -->
<g id="edge7" class="edge"><title>\\Slothsoft\\Chat\\SSEServer&#45;&gt;\\Slothsoft\\SSE\\Server</title>
<path fill="none" stroke="black" d="M807.425,-50C732.16,-50 560.802,-50 450.518,-50"/>
<polygon fill="none" stroke="black" points="450.372,-46.5001 440.372,-50 450.372,-53.5001 450.372,-46.5001"/>
</g>
</g>
</svg>
